<svg x="0" y="0" width="300" height="300" version="1.1" xmlns="http://www.w3.org/2000/svg" xmlns:xlink="http://www.w3.org/1999/xlink"><g fill="none" stroke="none" stroke-width="none" stroke-linecap="none" stroke-linejoin="miter" stroke-miterlimit="10" stroke-dasharray="" stroke-dashoffset="0" font-family="sans-serif" font-weight="normal" font-size="12" text-anchor="start" mix-blend-mode="normal"><path d="M0,300l0,-300l300,0l0,300z" fill="#ffffff" stroke-width="1" stroke-linecap="butt"></path><path d="M183.9,48.3l-135.6,203.4" stroke="#558779" stroke-width="29.69848" stroke-linecap="butt"></path><path d="M48.3,48.3l135.6,135.6" stroke="#b1a455" stroke-width="29.69848" stroke-linecap="butt"></path><path d="M183.9,116.1l0,135.6" stroke="#899f95" stroke-width="29.69848" stroke-linecap="butt"></path><path d="M48.3,251.7l-5.82435,-29.12176l112.30259,-168.45389l29.12176,-5.82435l5.82435,29.12176l-112.30259,168.45389" stroke="#558779" stroke-width="21" stroke-linecap="square"></path><path d="M77.99848,48.3l105.90152,105.90152l0,29.69848l-29.69848,0l-105.90152,-105.90152l0,-29.69848" stroke="#b1a455" stroke-width="21" stroke-linecap="square"></path><path d="M183.9,116.1l-21,21l0,93.6l21,21" stroke="#899f95" stroke-width="21" stroke-linecap="square"></path><path d="M204.9,230.7l0,-93.6" stroke="#899f95" stroke-width="21" stroke-linecap="square"></path></g></svg>